<mxfile host="app.diagrams.net" agent="Mozilla/5.0 (Windows NT 10.0; Win64; x64) AppleWebKit/537.36 (KHTML, like Gecko) Chrome/132.0.0.0 Safari/537.36" version="26.0.15">
  <diagram name="第 1 页" id="wByTv_DdmbfJfi1uruJ1">
    <mxGraphModel dx="2385" dy="1630" grid="1" gridSize="10" guides="1" tooltips="1" connect="1" arrows="1" fold="1" page="1" pageScale="1" pageWidth="827" pageHeight="1169" math="0" shadow="0">
      <root>
        <mxCell id="0" />
        <mxCell id="1" parent="0" />
        <mxCell id="kaXdv2zQN2LaPu9mrRz3-6" style="edgeStyle=orthogonalEdgeStyle;rounded=0;orthogonalLoop=1;jettySize=auto;html=1;exitX=0.5;exitY=1;exitDx=0;exitDy=0;entryX=0.5;entryY=0;entryDx=0;entryDy=0;" edge="1" parent="1" source="kaXdv2zQN2LaPu9mrRz3-1" target="kaXdv2zQN2LaPu9mrRz3-2">
          <mxGeometry relative="1" as="geometry" />
        </mxCell>
        <mxCell id="kaXdv2zQN2LaPu9mrRz3-1" value="&lt;font style=&quot;font-size: 18px; color: rgb(51, 0, 0);&quot; face=&quot;Times New Roman&quot;&gt;开始&lt;/font&gt;" style="rounded=1;whiteSpace=wrap;html=1;fillColor=#60a917;strokeColor=#2D7600;fontColor=#ffffff;" vertex="1" parent="1">
          <mxGeometry x="294" y="40" width="120" height="60" as="geometry" />
        </mxCell>
        <mxCell id="kaXdv2zQN2LaPu9mrRz3-7" style="edgeStyle=orthogonalEdgeStyle;rounded=0;orthogonalLoop=1;jettySize=auto;html=1;exitX=0.5;exitY=1;exitDx=0;exitDy=0;entryX=0.5;entryY=0;entryDx=0;entryDy=0;" edge="1" parent="1" source="kaXdv2zQN2LaPu9mrRz3-2" target="kaXdv2zQN2LaPu9mrRz3-3">
          <mxGeometry relative="1" as="geometry" />
        </mxCell>
        <mxCell id="kaXdv2zQN2LaPu9mrRz3-2" value="&lt;font style=&quot;font-size: 18px; color: rgb(51, 0, 0);&quot; face=&quot;Times New Roman&quot;&gt;输入图像X&lt;/font&gt;" style="rounded=1;whiteSpace=wrap;html=1;fillColor=#60a917;strokeColor=#2D7600;fontColor=#ffffff;" vertex="1" parent="1">
          <mxGeometry x="294" y="140" width="120" height="60" as="geometry" />
        </mxCell>
        <mxCell id="kaXdv2zQN2LaPu9mrRz3-8" style="edgeStyle=orthogonalEdgeStyle;rounded=0;orthogonalLoop=1;jettySize=auto;html=1;exitX=0.5;exitY=1;exitDx=0;exitDy=0;entryX=0.5;entryY=0;entryDx=0;entryDy=0;" edge="1" parent="1" source="kaXdv2zQN2LaPu9mrRz3-3" target="kaXdv2zQN2LaPu9mrRz3-4">
          <mxGeometry relative="1" as="geometry" />
        </mxCell>
        <mxCell id="kaXdv2zQN2LaPu9mrRz3-3" value="&lt;font face=&quot;Times New Roman&quot; color=&quot;#330000&quot;&gt;&lt;span style=&quot;font-size: 18px;&quot;&gt;低频变换（分解出低频分量）&lt;/span&gt;&lt;/font&gt;" style="rounded=1;whiteSpace=wrap;html=1;fillColor=#60a917;strokeColor=#2D7600;fontColor=#ffffff;" vertex="1" parent="1">
          <mxGeometry x="234" y="240" width="240" height="60" as="geometry" />
        </mxCell>
        <mxCell id="kaXdv2zQN2LaPu9mrRz3-21" style="edgeStyle=orthogonalEdgeStyle;rounded=0;orthogonalLoop=1;jettySize=auto;html=1;entryX=0;entryY=0.5;entryDx=0;entryDy=0;" edge="1" parent="1" source="kaXdv2zQN2LaPu9mrRz3-4" target="kaXdv2zQN2LaPu9mrRz3-11">
          <mxGeometry relative="1" as="geometry">
            <mxPoint x="410" y="700" as="targetPoint" />
            <Array as="points">
              <mxPoint x="354" y="600" />
            </Array>
          </mxGeometry>
        </mxCell>
        <mxCell id="kaXdv2zQN2LaPu9mrRz3-22" value="&lt;font style=&quot;font-size: 18px;&quot; face=&quot;Times New Roman&quot;&gt;否&lt;/font&gt;" style="edgeLabel;html=1;align=center;verticalAlign=middle;resizable=0;points=[];" vertex="1" connectable="0" parent="kaXdv2zQN2LaPu9mrRz3-21">
          <mxGeometry x="0.3697" y="-2" relative="1" as="geometry">
            <mxPoint as="offset" />
          </mxGeometry>
        </mxCell>
        <mxCell id="kaXdv2zQN2LaPu9mrRz3-28" style="edgeStyle=orthogonalEdgeStyle;rounded=0;orthogonalLoop=1;jettySize=auto;html=1;entryX=0.5;entryY=0;entryDx=0;entryDy=0;" edge="1" parent="1" source="kaXdv2zQN2LaPu9mrRz3-4" target="kaXdv2zQN2LaPu9mrRz3-10">
          <mxGeometry relative="1" as="geometry" />
        </mxCell>
        <mxCell id="kaXdv2zQN2LaPu9mrRz3-29" value="&lt;font style=&quot;font-size: 18px;&quot; face=&quot;Times New Roman&quot;&gt;是&lt;/font&gt;" style="edgeLabel;html=1;align=center;verticalAlign=middle;resizable=0;points=[];" vertex="1" connectable="0" parent="kaXdv2zQN2LaPu9mrRz3-28">
          <mxGeometry x="0.3545" y="1" relative="1" as="geometry">
            <mxPoint as="offset" />
          </mxGeometry>
        </mxCell>
        <mxCell id="kaXdv2zQN2LaPu9mrRz3-4" value="&lt;font face=&quot;Times New Roman&quot; style=&quot;font-size: 18px; color: light-dark(rgb(51, 0, 0), rgb(237, 237, 237));&quot;&gt;是否继续分解低频分量&lt;/font&gt;" style="rhombus;whiteSpace=wrap;html=1;fillColor=#60a917;fontColor=#ffffff;strokeColor=#2D7600;" vertex="1" parent="1">
          <mxGeometry x="249" y="350" width="210" height="150" as="geometry" />
        </mxCell>
        <mxCell id="kaXdv2zQN2LaPu9mrRz3-27" style="edgeStyle=orthogonalEdgeStyle;rounded=0;orthogonalLoop=1;jettySize=auto;html=1;exitX=1;exitY=0.5;exitDx=0;exitDy=0;entryX=0.5;entryY=1;entryDx=0;entryDy=0;" edge="1" parent="1" source="kaXdv2zQN2LaPu9mrRz3-10" target="kaXdv2zQN2LaPu9mrRz3-4">
          <mxGeometry relative="1" as="geometry" />
        </mxCell>
        <mxCell id="kaXdv2zQN2LaPu9mrRz3-10" value="&lt;font style=&quot;font-size: 18px; color: rgb(51, 0, 0);&quot; face=&quot;Times New Roman&quot;&gt;对低频分量递归低频变换&lt;/font&gt;" style="rounded=1;whiteSpace=wrap;html=1;fillColor=#60a917;strokeColor=#2D7600;fontColor=#ffffff;" vertex="1" parent="1">
          <mxGeometry x="114" y="570" width="120" height="60" as="geometry" />
        </mxCell>
        <mxCell id="kaXdv2zQN2LaPu9mrRz3-15" style="edgeStyle=orthogonalEdgeStyle;rounded=0;orthogonalLoop=1;jettySize=auto;html=1;" edge="1" parent="1" source="kaXdv2zQN2LaPu9mrRz3-11" target="kaXdv2zQN2LaPu9mrRz3-12">
          <mxGeometry relative="1" as="geometry" />
        </mxCell>
        <mxCell id="kaXdv2zQN2LaPu9mrRz3-11" value="&lt;font style=&quot;font-size: 18px; color: rgb(51, 0, 0);&quot; face=&quot;Times New Roman&quot;&gt;小卷积核卷积操作&lt;/font&gt;" style="rounded=1;whiteSpace=wrap;html=1;fillColor=#60a917;strokeColor=#2D7600;fontColor=#ffffff;" vertex="1" parent="1">
          <mxGeometry x="474" y="570" width="120" height="60" as="geometry" />
        </mxCell>
        <mxCell id="kaXdv2zQN2LaPu9mrRz3-16" style="edgeStyle=orthogonalEdgeStyle;rounded=0;orthogonalLoop=1;jettySize=auto;html=1;exitX=0.5;exitY=1;exitDx=0;exitDy=0;entryX=0.5;entryY=0;entryDx=0;entryDy=0;" edge="1" parent="1" source="kaXdv2zQN2LaPu9mrRz3-12" target="kaXdv2zQN2LaPu9mrRz3-13">
          <mxGeometry relative="1" as="geometry" />
        </mxCell>
        <mxCell id="kaXdv2zQN2LaPu9mrRz3-12" value="&lt;font style=&quot;font-size: 18px; color: rgb(51, 0, 0);&quot; face=&quot;Times New Roman&quot;&gt;你低频变换（合成）&lt;/font&gt;" style="rounded=1;whiteSpace=wrap;html=1;fillColor=#60a917;strokeColor=#2D7600;fontColor=#ffffff;" vertex="1" parent="1">
          <mxGeometry x="474" y="680" width="120" height="60" as="geometry" />
        </mxCell>
        <mxCell id="kaXdv2zQN2LaPu9mrRz3-17" style="edgeStyle=orthogonalEdgeStyle;rounded=0;orthogonalLoop=1;jettySize=auto;html=1;exitX=0.5;exitY=1;exitDx=0;exitDy=0;entryX=0.5;entryY=0;entryDx=0;entryDy=0;" edge="1" parent="1" source="kaXdv2zQN2LaPu9mrRz3-13" target="kaXdv2zQN2LaPu9mrRz3-14">
          <mxGeometry relative="1" as="geometry" />
        </mxCell>
        <mxCell id="kaXdv2zQN2LaPu9mrRz3-13" value="&lt;font style=&quot;font-size: 18px; color: rgb(51, 0, 0);&quot; face=&quot;Times New Roman&quot;&gt;输出结果&lt;/font&gt;" style="rounded=1;whiteSpace=wrap;html=1;fillColor=#60a917;strokeColor=#2D7600;fontColor=#ffffff;" vertex="1" parent="1">
          <mxGeometry x="474" y="790" width="120" height="60" as="geometry" />
        </mxCell>
        <mxCell id="kaXdv2zQN2LaPu9mrRz3-14" value="&lt;font style=&quot;font-size: 18px; color: rgb(51, 0, 0);&quot; face=&quot;Times New Roman&quot;&gt;结束&lt;/font&gt;" style="rounded=1;whiteSpace=wrap;html=1;fillColor=#60a917;strokeColor=#2D7600;fontColor=#ffffff;" vertex="1" parent="1">
          <mxGeometry x="474" y="900" width="120" height="60" as="geometry" />
        </mxCell>
      </root>
    </mxGraphModel>
  </diagram>
</mxfile>
